<mxfile host="Electron" modified="2024-01-10T18:33:32.027Z" agent="Mozilla/5.0 (Windows NT 10.0; Win64; x64) AppleWebKit/537.36 (KHTML, like Gecko) draw.io/22.1.16 Chrome/120.0.6099.109 Electron/28.1.0 Safari/537.36" etag="8Am3BwrRiITWw1LS3-S5" version="22.1.16" type="device">
  <diagram name="PÃ¡gina-1" id="OLtfStcI_ngsRvnIkgY1">
    <mxGraphModel dx="830" dy="498" grid="1" gridSize="10" guides="1" tooltips="1" connect="1" arrows="1" fold="1" page="1" pageScale="1" pageWidth="827" pageHeight="1169" math="0" shadow="0">
      <root>
        <mxCell id="0" />
        <mxCell id="1" parent="0" />
        <mxCell id="jrjtvSe8YnhLVvxXmv0O-1" value="PC" style="shape=process;whiteSpace=wrap;html=1;backgroundOutline=1;" vertex="1" parent="1">
          <mxGeometry x="149.5" y="490" width="120" height="60" as="geometry" />
        </mxCell>
        <mxCell id="jrjtvSe8YnhLVvxXmv0O-3" value="PLC" style="shape=process;whiteSpace=wrap;html=1;backgroundOutline=1;" vertex="1" parent="1">
          <mxGeometry x="340" y="340" width="120" height="60" as="geometry" />
        </mxCell>
        <mxCell id="jrjtvSe8YnhLVvxXmv0O-26" value="" style="edgeStyle=orthogonalEdgeStyle;rounded=0;orthogonalLoop=1;jettySize=auto;html=1;" edge="1" parent="1" source="jrjtvSe8YnhLVvxXmv0O-5" target="jrjtvSe8YnhLVvxXmv0O-3">
          <mxGeometry relative="1" as="geometry" />
        </mxCell>
        <mxCell id="jrjtvSe8YnhLVvxXmv0O-5" value="Botonera" style="rounded=0;whiteSpace=wrap;html=1;" vertex="1" parent="1">
          <mxGeometry x="360" y="200" width="80" height="40" as="geometry" />
        </mxCell>
        <mxCell id="jrjtvSe8YnhLVvxXmv0O-8" value="HMI" style="rounded=0;whiteSpace=wrap;html=1;" vertex="1" parent="1">
          <mxGeometry x="169.5" y="200" width="80" height="50" as="geometry" />
        </mxCell>
        <mxCell id="jrjtvSe8YnhLVvxXmv0O-12" value="Bomba 1" style="rounded=0;whiteSpace=wrap;html=1;" vertex="1" parent="1">
          <mxGeometry x="545" y="510" width="80" height="40" as="geometry" />
        </mxCell>
        <mxCell id="jrjtvSe8YnhLVvxXmv0O-13" value="Bomba 2" style="rounded=0;whiteSpace=wrap;html=1;" vertex="1" parent="1">
          <mxGeometry x="675" y="510" width="80" height="40" as="geometry" />
        </mxCell>
        <mxCell id="jrjtvSe8YnhLVvxXmv0O-32" value="" style="edgeStyle=orthogonalEdgeStyle;rounded=0;orthogonalLoop=1;jettySize=auto;html=1;" edge="1" parent="1" source="jrjtvSe8YnhLVvxXmv0O-14" target="jrjtvSe8YnhLVvxXmv0O-12">
          <mxGeometry relative="1" as="geometry" />
        </mxCell>
        <mxCell id="jrjtvSe8YnhLVvxXmv0O-14" value="Variador 1" style="rounded=0;whiteSpace=wrap;html=1;" vertex="1" parent="1">
          <mxGeometry x="540" y="340" width="90" height="80" as="geometry" />
        </mxCell>
        <mxCell id="jrjtvSe8YnhLVvxXmv0O-16" value="IN&lt;span style=&quot;&quot;&gt;&lt;span style=&quot;white-space: pre;&quot;&gt;&amp;nbsp;&amp;nbsp;&amp;nbsp;&amp;nbsp;&lt;/span&gt;&lt;/span&gt;OUT&lt;br&gt;Ethercat" style="rounded=0;whiteSpace=wrap;html=1;" vertex="1" parent="1">
          <mxGeometry x="540" y="300" width="90" height="40" as="geometry" />
        </mxCell>
        <mxCell id="jrjtvSe8YnhLVvxXmv0O-33" value="" style="edgeStyle=orthogonalEdgeStyle;rounded=0;orthogonalLoop=1;jettySize=auto;html=1;" edge="1" parent="1" source="jrjtvSe8YnhLVvxXmv0O-17" target="jrjtvSe8YnhLVvxXmv0O-13">
          <mxGeometry relative="1" as="geometry" />
        </mxCell>
        <mxCell id="jrjtvSe8YnhLVvxXmv0O-17" value="Variador 2" style="rounded=0;whiteSpace=wrap;html=1;" vertex="1" parent="1">
          <mxGeometry x="670" y="340" width="90" height="80" as="geometry" />
        </mxCell>
        <mxCell id="jrjtvSe8YnhLVvxXmv0O-18" value="IN&amp;nbsp;&amp;nbsp;&amp;nbsp;&amp;nbsp;OUT&lt;br&gt;Ethercat" style="rounded=0;whiteSpace=wrap;html=1;" vertex="1" parent="1">
          <mxGeometry x="670" y="300" width="90" height="40" as="geometry" />
        </mxCell>
        <mxCell id="jrjtvSe8YnhLVvxXmv0O-19" value="Switch" style="rounded=0;whiteSpace=wrap;html=1;" vertex="1" parent="1">
          <mxGeometry x="180" y="350" width="59" height="40" as="geometry" />
        </mxCell>
        <mxCell id="jrjtvSe8YnhLVvxXmv0O-27" value="" style="endArrow=classic;startArrow=classic;html=1;rounded=0;entryX=0.511;entryY=1.056;entryDx=0;entryDy=0;entryPerimeter=0;exitX=0.5;exitY=0;exitDx=0;exitDy=0;" edge="1" parent="1" source="jrjtvSe8YnhLVvxXmv0O-19" target="jrjtvSe8YnhLVvxXmv0O-8">
          <mxGeometry width="50" height="50" relative="1" as="geometry">
            <mxPoint x="110" y="350" as="sourcePoint" />
            <mxPoint x="160" y="300" as="targetPoint" />
          </mxGeometry>
        </mxCell>
        <mxCell id="jrjtvSe8YnhLVvxXmv0O-28" value="" style="endArrow=classic;startArrow=classic;html=1;rounded=0;entryX=0.511;entryY=1.056;entryDx=0;entryDy=0;entryPerimeter=0;exitX=0.5;exitY=0;exitDx=0;exitDy=0;" edge="1" parent="1" source="jrjtvSe8YnhLVvxXmv0O-1">
          <mxGeometry width="50" height="50" relative="1" as="geometry">
            <mxPoint x="209.8" y="487" as="sourcePoint" />
            <mxPoint x="209.8" y="390" as="targetPoint" />
          </mxGeometry>
        </mxCell>
        <mxCell id="jrjtvSe8YnhLVvxXmv0O-29" value="" style="endArrow=classic;startArrow=classic;html=1;rounded=0;entryX=0;entryY=0.5;entryDx=0;entryDy=0;exitX=1;exitY=0.5;exitDx=0;exitDy=0;" edge="1" parent="1" source="jrjtvSe8YnhLVvxXmv0O-19" target="jrjtvSe8YnhLVvxXmv0O-3">
          <mxGeometry width="50" height="50" relative="1" as="geometry">
            <mxPoint x="250" y="380" as="sourcePoint" />
            <mxPoint x="230" y="273" as="targetPoint" />
          </mxGeometry>
        </mxCell>
        <mxCell id="jrjtvSe8YnhLVvxXmv0O-30" value="" style="endArrow=classic;html=1;rounded=0;exitX=1;exitY=0.5;exitDx=0;exitDy=0;entryX=0.25;entryY=0;entryDx=0;entryDy=0;" edge="1" parent="1" source="jrjtvSe8YnhLVvxXmv0O-3" target="jrjtvSe8YnhLVvxXmv0O-16">
          <mxGeometry width="50" height="50" relative="1" as="geometry">
            <mxPoint x="470" y="370" as="sourcePoint" />
            <mxPoint x="560" y="290" as="targetPoint" />
            <Array as="points">
              <mxPoint x="500" y="370" />
              <mxPoint x="500" y="260" />
              <mxPoint x="563" y="260" />
            </Array>
          </mxGeometry>
        </mxCell>
        <mxCell id="jrjtvSe8YnhLVvxXmv0O-31" value="" style="endArrow=classic;html=1;rounded=0;exitX=0.644;exitY=0.01;exitDx=0;exitDy=0;exitPerimeter=0;entryX=0.25;entryY=0;entryDx=0;entryDy=0;" edge="1" parent="1" source="jrjtvSe8YnhLVvxXmv0O-16" target="jrjtvSe8YnhLVvxXmv0O-18">
          <mxGeometry width="50" height="50" relative="1" as="geometry">
            <mxPoint x="610" y="260" as="sourcePoint" />
            <mxPoint x="660" y="210" as="targetPoint" />
            <Array as="points">
              <mxPoint x="598" y="260" />
              <mxPoint x="693" y="260" />
            </Array>
          </mxGeometry>
        </mxCell>
        <mxCell id="jrjtvSe8YnhLVvxXmv0O-34" value="Ethernet" style="text;html=1;align=center;verticalAlign=middle;resizable=0;points=[];autosize=1;strokeColor=none;fillColor=none;" vertex="1" parent="1">
          <mxGeometry x="249.5" y="340" width="70" height="30" as="geometry" />
        </mxCell>
        <mxCell id="jrjtvSe8YnhLVvxXmv0O-35" value="Ethernet" style="text;html=1;align=center;verticalAlign=middle;resizable=0;points=[];autosize=1;strokeColor=none;fillColor=none;rotation=-90;" vertex="1" parent="1">
          <mxGeometry x="160" y="290" width="70" height="30" as="geometry" />
        </mxCell>
        <mxCell id="jrjtvSe8YnhLVvxXmv0O-36" value="Ethernet" style="text;html=1;align=center;verticalAlign=middle;resizable=0;points=[];autosize=1;strokeColor=none;fillColor=none;rotation=-90;" vertex="1" parent="1">
          <mxGeometry x="160" y="420" width="70" height="30" as="geometry" />
        </mxCell>
        <mxCell id="jrjtvSe8YnhLVvxXmv0O-37" value="24Vdc&lt;br&gt;PNP" style="text;html=1;align=center;verticalAlign=middle;resizable=0;points=[];autosize=1;strokeColor=none;fillColor=none;" vertex="1" parent="1">
          <mxGeometry x="340" y="265" width="60" height="40" as="geometry" />
        </mxCell>
        <mxCell id="jrjtvSe8YnhLVvxXmv0O-38" value="EtherCAT" style="text;html=1;align=center;verticalAlign=middle;resizable=0;points=[];autosize=1;strokeColor=none;fillColor=none;rotation=-90;" vertex="1" parent="1">
          <mxGeometry x="445" y="290" width="80" height="30" as="geometry" />
        </mxCell>
        <mxCell id="jrjtvSe8YnhLVvxXmv0O-39" value="EtherCAT" style="text;html=1;align=center;verticalAlign=middle;resizable=0;points=[];autosize=1;strokeColor=none;fillColor=none;rotation=0;" vertex="1" parent="1">
          <mxGeometry x="610" y="235" width="80" height="30" as="geometry" />
        </mxCell>
        <mxCell id="jrjtvSe8YnhLVvxXmv0O-40" value="230V~&lt;br&gt;3F" style="text;html=1;align=center;verticalAlign=middle;resizable=0;points=[];autosize=1;strokeColor=none;fillColor=none;" vertex="1" parent="1">
          <mxGeometry x="529" y="443" width="60" height="40" as="geometry" />
        </mxCell>
        <mxCell id="jrjtvSe8YnhLVvxXmv0O-41" value="230V~&lt;br&gt;3F" style="text;html=1;align=center;verticalAlign=middle;resizable=0;points=[];autosize=1;strokeColor=none;fillColor=none;" vertex="1" parent="1">
          <mxGeometry x="660" y="443" width="60" height="40" as="geometry" />
        </mxCell>
      </root>
    </mxGraphModel>
  </diagram>
</mxfile>
